<svg width="30" height="30" viewBox="0 0 30 30" fill="none" xmlns="http://www.w3.org/2000/svg">
<path d="M7.5 21.2498H22.5M6.25 13.7498L8.75 6.24976H21.25L23.75 13.7498H6.25ZM6.25 13.7498H23.75H6.25ZM6.25 13.7498V21.2498V13.7498ZM23.75 13.7498V21.2498V13.7498ZM6.25 21.2498V23.7498H7.5V21.2498H6.25ZM6.25 21.2498H7.5H6.25ZM23.75 21.2498V23.7498H22.5V21.2498H23.75ZM23.75 21.2498H22.5H23.75Z" stroke="#F1F2F6" stroke-width="2" stroke-linecap="square"/>
<path d="M10 18.7502C10.6904 18.7502 11.25 18.1906 11.25 17.5002C11.25 16.8099 10.6904 16.2502 10 16.2502C9.30964 16.2502 8.75 16.8099 8.75 17.5002C8.75 18.1906 9.30964 18.7502 10 18.7502Z" stroke="#F1F2F6" stroke-width="2" stroke-linecap="square"/>
<path d="M20 18.7502C20.6904 18.7502 21.25 18.1906 21.25 17.5002C21.25 16.8099 20.6904 16.2502 20 16.2502C19.3096 16.2502 18.75 16.8099 18.75 17.5002C18.75 18.1906 19.3096 18.7502 20 18.7502Z" stroke="#F1F2F6" stroke-width="2" stroke-linecap="square"/>
</svg>
