<svg width="30" height="30" viewBox="0 0 30 30" fill="none" xmlns="http://www.w3.org/2000/svg">
<path d="M5 21.2502H2.5V8.75024H18.75V21.2502H10" stroke="#4798DE" stroke-width="2" stroke-linecap="square"/>
<path d="M25 21.25H27.5V15.6945L25 11.25H18.75V21.25H20" stroke="#4798DE" stroke-width="2" stroke-linecap="square"/>
<path d="M7.5 23.75C8.88071 23.75 10 22.6307 10 21.25C10 19.8693 8.88071 18.75 7.5 18.75C6.11929 18.75 5 19.8693 5 21.25C5 22.6307 6.11929 23.75 7.5 23.75Z" stroke="#4798DE" stroke-width="2" stroke-linecap="square"/>
<path d="M22.5 23.75C23.8807 23.75 25 22.6307 25 21.25C25 19.8693 23.8807 18.75 22.5 18.75C21.1193 18.75 20 19.8693 20 21.25C20 22.6307 21.1193 23.75 22.5 23.75Z" stroke="#4798DE" stroke-width="2" stroke-linecap="square"/>
</svg>
